<?xml version="1.0" encoding="utf-8"?>
<!-- Generator: Adobe Illustrator 27.5.0, SVG Export Plug-In . SVG Version: 6.00 Build 0)  -->
<svg version="1.1" xmlns="http://www.w3.org/2000/svg" xmlns:xlink="http://www.w3.org/1999/xlink" x="0px" y="0px"
	 viewBox="0 0 75 75" style="enable-background:new 0 0 75 75;" xml:space="preserve">
<g id="Layer_1">
</g>
<g id="Layer_3">
	<g>
		<polygon points="42.92,21.85 26.93,34.98 41.1,44.3 32.26,61.44 50.33,41.19 36.32,34.88 		"/>
		<path d="M0,0v75h75V0H0z M64.6,21.31L53.71,64.14c-0.57,2.26-7.32,2.56-16.03,0.98l-1.1,4.34l-11.47-2.92l1.1-4.34
			c-8.41-2.77-14.19-6.26-13.62-8.51l10.89-42.84c0.57-2.26,7.32-2.55,16.03-0.97l1.11-4.35l11.47,2.92l-1.11,4.35
			C59.39,15.57,65.17,19.05,64.6,21.31z"/>
	</g>
</g>
</svg>
