<?xml version="1.0" encoding="utf-8"?>
<!-- Generator: Adobe Illustrator 27.5.0, SVG Export Plug-In . SVG Version: 6.00 Build 0)  -->
<svg version="1.1" xmlns="http://www.w3.org/2000/svg" xmlns:xlink="http://www.w3.org/1999/xlink" x="0px" y="0px"
	 viewBox="0 0 75 75" style="enable-background:new 0 0 75 75;" xml:space="preserve">
<g id="Layer_1">
</g>
<g id="Layer_3">
</g>
<g id="Layer_2">
	<g>
		<path d="M36.65,52.39c-2.07-0.02-3.6-0.89-6.19-2.59c-6.83-4.47-10.27-7.64-10.38-7.53c-0.18,0.19,7.08,12.49,16.57,12.55
			c9.56,0.06,17.11-12.34,16.9-12.55c-0.11-0.12-3.16,2.61-10.04,7.2C40.54,51.45,38.88,52.42,36.65,52.39z"/>
		<path d="M23.68,24.69c-1.98,0.05-4.43,2.78-4.12,6.55l8.53,0.14C28.45,27.41,25.74,24.64,23.68,24.69z"/>
		<path d="M51.02,24.69c-1.98,0.05-4.43,2.78-4.12,6.55l8.53,0.14C55.79,27.41,53.07,24.64,51.02,24.69z"/>
		<path d="M0,0v75h75V0H0z M37.46,63.99C25.34,63.97,8.58,42.73,9.01,11.14c14.46,4.22,35.34,7.44,56.9-0.13h0.08
			C66.45,42.7,49.6,64,37.46,63.99z"/>
	</g>
</g>
</svg>
