<?xml version="1.0" encoding="utf-8"?>
<!-- Generator: Adobe Illustrator 27.5.0, SVG Export Plug-In . SVG Version: 6.00 Build 0)  -->
<svg version="1.1" xmlns="http://www.w3.org/2000/svg" xmlns:xlink="http://www.w3.org/1999/xlink" x="0px" y="0px"
	 viewBox="0 0 75 75" style="enable-background:new 0 0 75 75;" xml:space="preserve">
<g id="Layer_1">
</g>
<g id="Layer_2">
	<path d="M0,0v75h75V0H0z M65.94,54.21L32.05,66.68L10.29,56.55v-2.26L31.88,64l34.06-12.85V54.21z M65.94,49.34L32.05,61.81
		L10.29,51.68v-2.26l21.59,9.71l34.06-12.85V49.34z M65.94,44.51L32.05,56.98L10.29,46.86V44.6l21.59,9.71l34.06-12.85V44.51z
		 M65.94,39.6L32.05,52.07L10.29,41.94v-2.26l21.59,9.71l34.06-12.85V39.6z M65.94,34.73L32.05,47.2L10.29,37.07v-2.26l21.59,9.71
		l34.06-12.85V34.73z M65.94,29.9L32.05,42.37L10.29,32.25v-2.26l21.59,9.71l34.06-12.85V29.9z M65.94,25.03L32.05,37.5L10.29,27.37
		v-2.26l21.59,9.71l34.06-12.85V25.03z M31.96,32.39L10.29,23.1l35.56-11.55l20.08,7.95L31.96,32.39z"/>
</g>
<g id="Layer_3">
</g>
</svg>
