<?xml version="1.0" encoding="utf-8"?>
<!-- Generator: Adobe Illustrator 27.5.0, SVG Export Plug-In . SVG Version: 6.00 Build 0)  -->
<svg version="1.1" xmlns="http://www.w3.org/2000/svg" xmlns:xlink="http://www.w3.org/1999/xlink" x="0px" y="0px"
	 viewBox="0 0 75 75" style="enable-background:new 0 0 75 75;" xml:space="preserve">
<g id="Layer_1">
</g>
<g id="Layer_4">
	<g>
		<path d="M53.16,37.5c0-5.06-2.46-9.53-6.25-12.31l-2.99-1.73c-1.86-0.8-3.9-1.25-6.05-1.25c-2.89,0-5.58,0.82-7.89,2.21l-1.9,1.34
			c-3.36,2.8-5.51,7.02-5.51,11.75c0,8.44,6.85,15.29,15.29,15.29S53.16,45.94,53.16,37.5z"/>
		<path d="M0,0v75h75V0H0z M67.73,42.5h-6.6c-0.17,0.78-0.37,1.55-0.62,2.3l5.93,3.14l-4.19,7.91l-6.04-3.2
			c-0.73,0.88-1.52,1.71-2.37,2.48l3.7,5.88l-7.58,4.77l-3.77-6c-1.24,0.46-2.52,0.82-3.84,1.07v6.5h-8.95v-6.5
			c-1.36-0.26-2.67-0.63-3.94-1.11l-3.89,6.03l-7.53-4.85l3.78-5.87c-0.91-0.83-1.75-1.73-2.52-2.69l-6.2,3.18l-4.08-7.97l6.09-3.12
			c-0.2-0.64-0.36-1.3-0.51-1.96H8v-8.95h6.41c0.15-0.92,0.36-1.82,0.62-2.7l-6.01-3.19l4.19-7.91l5.91,3.13
			c0.73-0.94,1.53-1.82,2.4-2.64L17.9,15.1l7.32-5.15l3.84,5.45c1.39-0.55,2.83-0.98,4.33-1.27v-6.5h8.95v6.5
			c1.44,0.27,2.84,0.68,4.17,1.2l3.13-5.4l7.75,4.49l-3.29,5.69c0.78,0.73,1.51,1.5,2.18,2.32l6.07-3.11l4.08,7.97l-5.89,3.01
			c0.33,1.05,0.59,2.13,0.78,3.23h6.41V42.5z"/>
	</g>
</g>
</svg>
